<svg viewBox="0 0 48 48" xmlns="http://www.w3.org/2000/svg" xmlns:xlink="http://www.w3.org/1999/xlink" width="48" height="48" fill="none" customFrame="#000000">
	<path id="1_filled" d="M24 48C37.2548 48 48 37.2548 48 24C48 10.7452 37.2548 0 24 0C10.7452 0 0 10.7452 0 24C0 37.2548 10.7452 48 24 48ZM27 12.3L27 34.5C27 35.3285 26.3285 36 25.5 36C24.6715 36 24 35.3285 24 34.5L24 18.8066C22.7922 20.3628 21.1129 21.8622 18.8185 22.7075C18.0412 22.9939 17.1788 22.5959 16.8925 21.8185C16.6061 21.0412 17.0041 20.1788 17.7815 19.8925C20.1581 19.0169 21.725 17.1138 22.7216 15.2924C23.214 14.3926 23.5468 13.5484 23.7556 12.9307C23.8595 12.6232 23.9315 12.3751 23.9765 12.2089C23.9989 12.1259 24.0145 12.0635 24.024 12.0246L24.0336 11.9842L24.0347 11.9796L24.0349 11.978C24.1991 11.2309 24.8993 10.7268 25.6602 10.8086C26.4222 10.8905 27 11.5336 27 12.3Z" fill="rgb(0,0,0)" fill-rule="nonzero" />
</svg>
