<svg viewBox="0 0 48 48" xmlns="http://www.w3.org/2000/svg" xmlns:xlink="http://www.w3.org/1999/xlink" width="48" height="48" fill="none" customFrame="#000000">
	<path id="1_regular" d="M3 24C3 12.402 12.402 3 24 3C35.598 3 45 12.402 45 24C45 35.598 35.598 45 24 45C12.402 45 3 35.598 3 24ZM24 0C10.7452 0 0 10.7452 0 24C0 37.2548 10.7452 48 24 48C37.2548 48 48 37.2548 48 24C48 10.7452 37.2548 0 24 0ZM27 12.3C27 11.5336 26.4222 10.8905 25.6602 10.8086C24.8993 10.7268 24.1991 11.2309 24.0349 11.978L24.0347 11.9796L24.0336 11.9842L24.024 12.0246C24.0145 12.0635 23.9989 12.1259 23.9765 12.2089C23.9315 12.3751 23.8595 12.6232 23.7556 12.9307C23.5468 13.5484 23.214 14.3926 22.7216 15.2924C21.725 17.1138 20.1581 19.0169 17.7815 19.8925C17.0041 20.1788 16.6061 21.0412 16.8925 21.8185C17.1788 22.5959 18.0412 22.9939 18.8185 22.7075C21.1129 21.8622 22.7922 20.3628 24 18.8066L24 34.5C24 35.3285 24.6715 36 25.5 36C26.3285 36 27 35.3285 27 34.5L27 12.3Z" fill="rgb(0,0,0)" fill-rule="nonzero" />
</svg>
