<svg viewBox="0 0 48 48" xmlns="http://www.w3.org/2000/svg" xmlns:xlink="http://www.w3.org/1999/xlink" width="48" height="48" fill="none" customFrame="#000000">
	<path id="3_regular" d="M24 3C12.402 3 3 12.402 3 24C3 35.598 12.402 45 24 45C35.598 45 45 35.598 45 24C45 12.402 35.598 3 24 3ZM0 24C0 10.7452 10.7452 0 24 0C37.2548 0 48 10.7452 48 24C48 37.2548 37.2548 48 24 48C10.7452 48 0 37.2548 0 24ZM23.1 22.5C22.2715 22.5 21.6 23.1715 21.6 24C21.6 24.8285 22.2715 25.5 23.1 25.5L24.597 25.5C27.3569 25.5 29.4 27.5509 29.4 29.85C29.4 32.1491 27.3569 34.2 24.597 34.2C23.0135 34.2 21.7278 33.6124 20.813 32.9945C20.3576 32.6868 20.0069 32.3798 19.7744 32.1547C19.6589 32.0426 19.574 31.9524 19.5218 31.8947C19.4958 31.8659 19.478 31.8454 19.4688 31.8344L19.4616 31.8259C18.9398 31.1873 17.9995 31.0894 17.3572 31.6084C16.7129 32.129 16.6127 33.0734 17.1334 33.7178L17.1341 33.7188L17.1349 33.7198L17.1367 33.722L17.1412 33.7273L17.1526 33.7412C17.1613 33.7519 17.1726 33.7652 17.1863 33.7812C17.2135 33.8132 17.2504 33.8555 17.2966 33.9067C17.3891 34.009 17.5196 34.1472 17.687 34.3093C18.0208 34.6326 18.5068 35.0569 19.1339 35.4805C20.3844 36.3252 22.2472 37.2 24.597 37.2C28.7992 37.2 32.4 34.0127 32.4 29.85C32.4 27.4217 31.1747 25.3254 29.3195 24C31.1747 22.6746 32.4 20.5783 32.4 18.15C32.4 13.9873 28.7992 10.8 24.597 10.8C22.2472 10.8 20.3844 11.6748 19.1339 12.5195C18.5068 12.9431 18.0208 13.3674 17.687 13.6907C17.5196 13.8528 17.3891 13.991 17.2966 14.0933C17.2504 14.1445 17.2135 14.1868 17.1863 14.2188L17.1665 14.2421L17.1526 14.2588L17.1412 14.2727L17.1367 14.278L17.1349 14.2802L17.1341 14.2812L17.1334 14.2822C16.6127 14.9266 16.7129 15.871 17.3572 16.3916C17.9995 16.9106 18.9406 16.8119 19.4623 16.1731C19.5599 16.0582 19.6662 15.9502 19.7744 15.8453C20.0069 15.6202 20.3576 15.3132 20.813 15.0055C21.7278 14.3876 23.0135 13.8 24.597 13.8C27.3569 13.8 29.4 15.8509 29.4 18.15C29.4 20.4491 27.3569 22.5 24.597 22.5L23.1 22.5ZM17.1526 14.2588C17.1566 14.2538 17.1613 14.2482 17.1665 14.2421C17.1724 14.235 17.179 14.2273 17.1863 14.2188" fill="rgb(0,0,0)" fill-rule="nonzero" />
</svg>
