<svg viewBox="0 0 48 48" xmlns="http://www.w3.org/2000/svg" xmlns:xlink="http://www.w3.org/1999/xlink" width="48" height="48" fill="none" customFrame="#000000">
	<path id="4_filled" d="M24 48C37.2548 48 48 37.2548 48 24C48 10.7452 37.2548 0 24 0C10.7452 0 0 10.7452 0 24C0 37.2548 10.7452 48 24 48ZM28.2 12.6961L28.2 28.2L30.9 28.2C31.7285 28.2 32.4 28.8715 32.4 29.7C32.4 30.5285 31.7285 31.2 30.9 31.2L28.2 31.2L28.2 34.5C28.2 35.3285 27.5285 36 26.7 36C25.8715 36 25.2 35.3285 25.2 34.5L25.2 31.2L15.0697 31.2C13.5872 31.2 12.7006 29.5506 13.5182 28.314L24.5684 11.6039C25.6511 9.96672 28.2 10.7332 28.2 12.6961ZM25.2 16.0877L25.2 28.2L17.1902 28.2L25.2 16.0877Z" fill="rgb(0,0,0)" fill-rule="nonzero" />
</svg>
