<svg viewBox="0 0 48 48" xmlns="http://www.w3.org/2000/svg" xmlns:xlink="http://www.w3.org/1999/xlink" width="48" height="48" fill="none" customFrame="#000000">
	<path id="5_filled" d="M24 48C37.2548 48 48 37.2548 48 24C48 10.7452 37.2548 0 24 0C10.7452 0 0 10.7452 0 24C0 37.2548 10.7452 48 24 48ZM29.6995 15L21.5004 15L21.1021 20.9741C21.3526 20.9714 21.6193 20.9693 21.8933 20.9681C23.1275 20.9629 24.6839 20.9748 25.4258 21.0791C29.8559 21.7016 32.9423 25.7976 32.3197 30.2275C31.6972 34.6574 27.6012 37.744 23.1713 37.1214C20.759 36.7824 18.7441 35.4114 17.5123 33.5227C17.0598 32.8289 17.2554 31.8995 17.9494 31.447C18.6432 30.9943 19.5726 31.19 20.0251 31.8839C20.8038 33.0778 22.0704 33.9372 23.5888 34.1506C26.378 34.5426 28.957 32.5992 29.3489 29.81C29.7409 27.0208 27.7976 24.4418 25.0084 24.0498C24.5303 23.9827 23.2267 23.9626 21.906 23.9681C21.2753 23.9708 20.6813 23.9788 20.2444 23.9861C20.0262 23.9897 19.8476 23.9933 19.7239 23.9958L19.5815 23.9988L19.5335 24C19.1122 24.01 18.7056 23.8424 18.414 23.5381C18.1225 23.2339 17.9724 22.8211 18.0004 22.4006L18.6004 13.4003C18.6529 12.6122 19.3074 12 20.0971 12L29.6995 12C30.528 12 31.1995 12.6715 31.1995 13.5C31.1995 14.3285 30.528 15 29.6995 15Z" fill="rgb(0,0,0)" fill-rule="nonzero" />
</svg>
