<svg viewBox="0 0 48 48" xmlns="http://www.w3.org/2000/svg" xmlns:xlink="http://www.w3.org/1999/xlink" width="48" height="48" fill="none" customFrame="#000000">
	<path id="6_filled" d="M48 24C48 37.2548 37.2548 48 24 48C10.7452 48 0 37.2548 0 24C0 10.7452 10.7452 0 24 0C37.2548 0 48 10.7452 48 24ZM24 23.4C21.0176 23.4 18.6 25.8176 18.6 28.8C18.6 31.7824 21.0176 34.2 24 34.2C26.9824 34.2 29.4 31.7824 29.4 28.8C29.4 27.2335 28.8709 25.8925 27.9796 24.954C27.0995 24.0274 25.7791 23.4 24 23.4ZM24 37.2C28.6392 37.2 32.4 33.4392 32.4 28.8C32.4 26.5558 31.6354 24.4468 30.1548 22.888C28.663 21.3173 26.5333 20.4 24 20.4C21.3253 20.4 18.9425 21.6502 17.4042 23.598C17.4638 20.7457 18.158 18.2796 19.2922 16.5491C20.454 14.7761 22.043 13.8 24 13.8C25.831 13.8 27.3274 14.6518 28.4606 16.1928C28.9514 16.8601 29.8903 17.0033 30.5578 16.5125C31.2251 16.0217 31.3682 15.0828 30.8774 14.4154C29.264 12.2215 26.9203 10.8 24 10.8C20.857 10.8 18.396 12.443 16.7828 14.9047C15.1949 17.3279 14.4 20.5607 14.4 24C14.4 28.3884 15.3437 31.6891 17.0906 33.9239C18.8766 36.2083 21.3631 37.2 24 37.2Z" fill="rgb(0,0,0)" fill-rule="nonzero" />
</svg>
