<svg viewBox="0 0 48 48" xmlns="http://www.w3.org/2000/svg" xmlns:xlink="http://www.w3.org/1999/xlink" width="48" height="48" fill="none" customFrame="#000000">
	<path id="6_regular" d="M23.5 3C12.1436 3 2.9375 12.402 2.9375 24C2.9375 35.598 12.1436 45 23.5 45C34.8564 45 44.0625 35.598 44.0625 24C44.0625 12.402 34.8564 3 23.5 3ZM0 24C0 10.7452 10.5213 0 23.5 0C36.4787 0 47 10.7452 47 24C47 37.2548 36.4787 48 23.5 48C10.5213 48 0 37.2548 0 24ZM23.5 23.4C20.5798 23.4 18.2125 25.8176 18.2125 28.8C18.2125 31.7824 20.5798 34.2 23.5 34.2C26.4202 34.2 28.7875 31.7824 28.7875 28.8C28.7875 27.2335 28.2694 25.8925 27.3967 24.954C26.5349 24.0274 25.2421 23.4 23.5 23.4ZM23.5 37.2C20.9181 37.2 18.4833 36.2083 16.7346 33.9239C15.024 31.6891 14.1 28.3884 14.1 24C14.1 20.5607 14.8783 17.3279 16.4332 14.9047C18.0127 12.443 20.4224 10.8 23.5 10.8C26.3595 10.8 28.6544 12.2215 30.2342 14.4154C30.7147 15.0828 30.5746 16.0217 29.9211 16.5125C29.2676 17.0033 28.3483 16.8601 27.8677 16.1928C26.758 14.6518 25.2928 13.8 23.5 13.8C21.5838 13.8 20.0279 14.7761 18.8902 16.5491C17.7797 18.2796 17.1 20.7457 17.0416 23.598C18.5478 21.6502 20.881 20.4 23.5 20.4C25.9805 20.4 28.0658 21.3173 29.5266 22.888C30.9763 24.4468 31.725 26.5558 31.725 28.8C31.725 33.4392 28.0425 37.2 23.5 37.2Z" fill="rgb(0,0,0)" fill-rule="nonzero" />
</svg>
