<svg viewBox="0 0 48 48" xmlns="http://www.w3.org/2000/svg" xmlns:xlink="http://www.w3.org/1999/xlink" width="48" height="48" fill="none" customFrame="#000000">
	<path id="7_regular" d="M3 24C3 12.402 12.402 3 24 3C35.598 3 45 12.402 45 24C45 35.598 35.598 45 24 45C12.402 45 3 35.598 3 24ZM24 0C10.7452 0 0 10.7452 0 24C0 37.2548 10.7452 48 24 48C37.2548 48 48 37.2548 48 24C48 10.7452 37.2548 0 24 0ZM15.9 12C15.0715 12 14.4 12.6715 14.4 13.5C14.4 14.3285 15.0715 15 15.9 15L29.0816 15C28.3781 16.0068 27.5305 17.3032 26.6358 18.8562C24.3389 22.8432 21.7124 28.5536 20.4257 35.4239C20.2732 36.2381 20.8096 37.0218 21.6239 37.1743C22.4381 37.3268 23.2218 36.7904 23.3743 35.9761C24.5824 29.5264 27.0559 24.1368 29.2352 20.3538C30.3235 18.4649 31.3338 16.9843 32.0677 15.9814C32.4344 15.48 32.7317 15.0986 32.9342 14.8459C33.0356 14.7196 33.1133 14.6255 33.164 14.5646C33.1895 14.5342 33.2082 14.5121 33.2198 14.4984L33.2329 14.483L33.2338 14.4822C33.6181 14.0386 33.7084 13.4114 33.4646 12.8773C33.2208 12.343 32.6874 12 32.1 12L15.9 12Z" fill="rgb(0,0,0)" fill-rule="nonzero" />
</svg>
