<svg viewBox="0 0 48 48" xmlns="http://www.w3.org/2000/svg" xmlns:xlink="http://www.w3.org/1999/xlink" width="48" height="48" fill="none" customFrame="#000000">
	<path id="8_filled" d="M48 24C48 37.2548 37.2548 48 24 48C10.7452 48 0 37.2548 0 24C0 10.7452 10.7452 0 24 0C37.2548 0 48 10.7452 48 24ZM24 13.8C21.603 13.8 19.8 15.6215 19.8 17.7C19.8 19.7785 21.603 21.6 24 21.6C26.397 21.6 28.2 19.7785 28.2 17.7C28.2 15.6215 26.397 13.8 24 13.8ZM28.693 22.9325C30.2182 21.6794 31.2 19.8194 31.2 17.7C31.2 13.8138 27.899 10.8 24 10.8C20.101 10.8 16.8 13.8138 16.8 17.7C16.8 19.8194 17.7818 21.6794 19.307 22.9325C17.0959 24.3131 15.6 26.6515 15.6 29.4C15.6 33.8333 19.4922 37.2 24 37.2C28.5078 37.2 32.4 33.8333 32.4 29.4C32.4 26.6515 30.9041 24.3131 28.693 22.9325ZM24 24.6C20.8864 24.6 18.6 26.8746 18.6 29.4C18.6 31.9254 20.8864 34.2 24 34.2C27.1136 34.2 29.4 31.9254 29.4 29.4C29.4 26.8746 27.1136 24.6 24 24.6Z" fill="rgb(0,0,0)" fill-rule="nonzero" />
</svg>
