<svg viewBox="0 0 48 48" xmlns="http://www.w3.org/2000/svg" xmlns:xlink="http://www.w3.org/1999/xlink" width="48" height="48" fill="none" customFrame="#000000">
	<path id="hp_filled" d="M24 0C37.2548 0 48 10.7452 48 24C48 37.2548 37.2548 48 24 48C10.7452 48 0 37.2548 0 24C0 10.7452 10.7452 0 24 0ZM22.346 17.94L14.384 31.7306C13.964 32.458 13.0625 32.6996 12.335 32.2796C11.6075 31.8596 11.366 30.958 11.786 30.2306L20.181 15.69C20.4836 15.1659 21.0361 14.894 21.5935 14.94L37.68 14.94C38.52 14.94 39.18 15.6 39.18 16.44C39.18 17.28 38.52 17.94 37.68 17.94L22.346 17.94Z" fill="rgb(0,0,0)" fill-rule="evenodd" />
</svg>
