<svg viewBox="0 0 48 48" xmlns="http://www.w3.org/2000/svg" xmlns:xlink="http://www.w3.org/1999/xlink" width="48" height="48" fill="none" customFrame="#000000">
	<path id="0_regular" d="M45 24C45 35.598 35.598 45 24 45C12.402 45 3 35.598 3 24C3 12.402 12.402 3 24 3C35.598 3 45 12.402 45 24ZM24 48C37.2548 48 48 37.2548 48 24C48 10.7452 37.2548 0 24 0C10.7452 0 0 10.7452 0 24C0 37.2548 10.7452 48 24 48ZM18 24C18 20.8681 18.4621 18.2435 19.453 16.4532C20.3798 14.7786 21.7716 13.8 24 13.8C26.2284 13.8 27.6202 14.7786 28.547 16.4532C29.5379 18.2435 30 20.8681 30 24C30 27.1319 29.5379 29.7565 28.547 31.5468C27.6202 33.2214 26.2284 34.2 24 34.2C21.7716 34.2 20.3798 33.2214 19.453 31.5468C18.4621 29.7565 18 27.1319 18 24ZM24 10.8C20.6034 10.8 18.2452 12.4405 16.8282 15.0005C15.4753 17.4448 15 20.6701 15 24C15 27.3299 15.4753 30.5552 16.8282 32.9995C18.2452 35.5595 20.6034 37.2 24 37.2C27.3966 37.2 29.7548 35.5595 31.1718 32.9995C32.5247 30.5552 33 27.3299 33 24C33 20.6701 32.5247 17.4448 31.1718 15.0005C29.7548 12.4405 27.3966 10.8 24 10.8Z" fill="rgb(255,255,255)" fill-rule="nonzero" />
</svg>
