<svg viewBox="0 0 48 48" xmlns="http://www.w3.org/2000/svg" xmlns:xlink="http://www.w3.org/1999/xlink" width="48" height="48" fill="none" customFrame="#000000">
	<path id="2_filled" d="M24 48C37.2548 48 48 37.2548 48 24C48 10.7452 37.2548 0 24 0C10.7452 0 0 10.7452 0 24C0 37.2548 10.7452 48 24 48ZM19.2014 16.2042C18.7038 16.862 17.7668 16.9957 17.1058 16.5008C16.4425 16.0045 16.3073 15.0644 16.8037 14.4012L16.8044 14.4002L16.8052 14.3992L16.807 14.3969L16.811 14.3915L16.8218 14.3773C16.8302 14.3664 16.8408 14.3527 16.8538 14.3364C16.8796 14.3036 16.9146 14.2603 16.9585 14.2079C17.0464 14.103 17.1707 13.9609 17.3302 13.7942C17.6478 13.4622 18.1121 13.0249 18.7129 12.5874C19.9087 11.7167 21.7108 10.8 23.9988 10.8C28.1411 10.8 31.4981 14.1581 31.4988 18.2998C31.4992 20.6627 30.5197 22.3349 29.148 23.6153C28.0795 24.6127 26.7097 25.4185 25.4719 26.1466C25.2325 26.2874 24.998 26.4254 24.7716 26.5613C23.2884 27.4512 21.9956 28.3284 21.0523 29.5232C20.3594 30.4009 19.818 31.4998 19.602 33L30 33C30.8285 33 31.5 33.6715 31.5 34.5C31.5 35.3285 30.8285 36 30 36L18 36C17.1715 36 16.5 35.3285 16.5 34.5C16.5 31.555 17.3532 29.3672 18.6977 27.6643C20.0044 26.0092 21.7115 24.8988 23.228 23.9887C23.5067 23.8217 23.776 23.6626 24.0359 23.509C25.2714 22.779 26.2958 22.1737 27.1009 21.4223C27.9788 20.6027 28.499 19.6873 28.4988 18.3002C28.4983 15.8146 26.4838 13.8 23.9988 13.8C22.5379 13.8 21.343 14.3833 20.4788 15.0126C20.0497 15.3251 19.7183 15.6378 19.4978 15.8682C19.3883 15.9828 19.3079 16.0752 19.2582 16.1344C19.2335 16.1639 19.2166 16.185 19.2077 16.1963L19.2014 16.2042ZM19.2004 16.2055L19.2014 16.2042L19.2004 16.2055Z" fill="rgb(255,255,255)" fill-rule="nonzero" />
</svg>
