<svg viewBox="0 0 48 48" xmlns="http://www.w3.org/2000/svg" xmlns:xlink="http://www.w3.org/1999/xlink" width="48" height="48" fill="none" customFrame="#000000">
	<path id="5_regular" d="M29.7007 14.9998L21.5016 14.9998L21.1033 20.9738C21.3538 20.9712 21.6205 20.969 21.8944 20.968C23.1287 20.9627 24.6851 20.9746 25.427 21.0788C29.857 21.7014 32.9435 25.7974 32.3209 30.2273C31.6984 34.6573 27.6024 37.7437 23.1725 37.1212C20.7602 36.7822 18.7453 35.4113 17.5135 33.5225C17.061 32.8286 17.2566 31.8992 17.9506 31.4467C18.6444 30.9942 19.5738 31.1898 20.0263 31.8838C20.8049 33.0775 22.0716 33.937 23.59 34.1503C26.3792 34.5424 28.9582 32.599 29.3501 29.8098C29.7421 27.0205 27.7987 24.4416 25.0096 24.0497C24.5315 23.9825 23.2279 23.9623 21.9071 23.9678C21.2765 23.9706 20.6825 23.9785 20.2456 23.9858C20.0274 23.9896 19.8488 23.993 19.7251 23.9956L19.5827 23.9987L19.5346 23.9998C19.1134 24.0098 18.7067 23.8422 18.4152 23.538C18.1237 23.2337 17.9736 22.8209 18.0016 22.4004L18.6016 13.4C18.6541 12.612 19.3086 11.9998 20.0983 11.9998L29.7007 11.9998C30.5292 11.9998 31.2007 12.6714 31.2007 13.4998C31.2007 14.3282 30.5292 14.9998 29.7007 14.9998ZM24 0C10.7452 0 0 10.7452 0 24C0 37.2548 10.7452 48 24 48C37.2548 48 48 37.2548 48 24C48 10.7452 37.2548 0 24 0ZM3 24C3 12.402 12.402 3 24 3C35.598 3 45 12.402 45 24C45 35.598 35.598 45 24 45C12.402 45 3 35.598 3 24Z" fill="rgb(255,255,255)" fill-rule="nonzero" />
</svg>
