<svg viewBox="0 0 48 48" xmlns="http://www.w3.org/2000/svg" xmlns:xlink="http://www.w3.org/1999/xlink" width="48" height="48" fill="none" customFrame="#000000">
	<path id="9_regular" d="M24 45C35.598 45 45 35.598 45 24C45 12.402 35.598 3 24 3C12.402 3 3 12.402 3 24C3 35.598 12.402 45 24 45ZM48 24C48 37.2548 37.2548 48 24 48C10.7452 48 0 37.2548 0 24C0 10.7452 10.7452 0 24 0C37.2548 0 48 10.7452 48 24ZM24 24.6C26.9824 24.6 29.4 22.1824 29.4 19.2C29.4 16.2176 26.9824 13.8 24 13.8C21.0176 13.8 18.6 16.2176 18.6 19.2C18.6 20.7665 19.1291 22.1075 20.0204 23.046C20.9005 23.9726 22.2209 24.6 24 24.6ZM24 10.8C26.6369 10.8 29.1234 11.7917 30.9094 14.0761C32.6563 16.3109 33.6 19.6116 33.6 24C33.6 27.4393 32.8051 30.6721 31.2172 33.0953C29.604 35.557 27.143 37.2 24 37.2C21.0797 37.2 18.736 35.7785 17.1226 33.5846C16.6318 32.9172 16.7749 31.9783 17.4422 31.4875C18.1097 30.9967 19.0486 31.1399 19.5394 31.8072C20.6726 33.3482 22.169 34.2 24 34.2C25.957 34.2 27.546 33.2239 28.7078 31.4509C29.842 29.7204 30.5362 27.2543 30.5958 24.402C29.0575 26.3498 26.6747 27.6 24 27.6C21.4667 27.6 19.337 26.6827 17.8452 25.112C16.3646 23.5532 15.6 21.4442 15.6 19.2C15.6 14.5608 19.3608 10.8 24 10.8Z" fill="rgb(255,255,255)" fill-rule="nonzero" />
</svg>
