<svg viewBox="0 0 48 48" xmlns="http://www.w3.org/2000/svg" xmlns:xlink="http://www.w3.org/1999/xlink" width="48" height="48" fill="none" customFrame="#000000">
	<path id="lp_filled" d="M24 0C37.2548 0 48 10.7452 48 24C48 37.2548 37.2548 48 24 48C10.7452 48 0 37.2548 0 24C0 10.7452 10.7452 0 24 0ZM25.654 17.94L10.32 17.94C9.48001 17.94 8.82001 17.28 8.82001 16.44C8.82001 15.6 9.48001 14.94 10.32 14.94L26.4065 14.94C26.7097 14.915 27.0114 14.984 27.2723 15.1365C27.535 15.2862 27.7458 15.5131 27.8758 15.7883L36.214 30.2306C36.634 30.958 36.3925 31.8596 35.665 32.2796C34.9375 32.6996 34.036 32.458 33.616 31.7306L25.654 17.94Z" fill="rgb(255,255,255)" fill-rule="evenodd" />
</svg>
